<svg width="84" height="28" viewBox="0 0 84 28" fill="none" xmlns="http://www.w3.org/2000/svg">
<path fill-rule="evenodd" clip-rule="evenodd" d="M9.34803 0C9.07233 0.00205902 8.72646 0.00564224 8.25642 0.0113663C7.5062 0.0311741 6.93704 0.0765546 6.37925 0.175635C5.69961 0.29617 5.08429 0.494578 4.49599 0.790912C3.89813 1.09137 3.35063 1.48452 2.87562 1.95459C2.40114 2.42314 2.00296 2.96491 1.69757 3.55775C1.3974 4.14066 1.1964 4.75041 1.07335 5.42557C0.972874 5.97821 0.927287 6.53987 0.907355 7.27412L0.90052 7.58001C0.898708 7.68502 0.897307 7.79369 0.896319 7.90809L0.893066 8.57254L0.893107 19.4397L0.895125 19.9136C0.89669 20.2154 0.900437 20.475 0.907355 20.7245C0.927328 21.4582 0.972915 22.02 1.07331 22.5718C1.19644 23.2474 1.39749 23.8576 1.69753 24.4402C2.00304 25.0327 2.40105 25.5743 2.87595 26.0438C3.35142 26.5138 3.89895 26.9071 4.49669 27.2075C5.08429 27.5035 5.69961 27.7019 6.3795 27.8224C6.88635 27.9125 7.40279 27.9582 8.04731 27.9805L8.53031 27.9923C8.78147 27.9958 9.15267 27.9977 9.89376 28L20.4029 27.9984C20.6815 27.9965 21.0182 27.993 21.5323 27.9867C22.2826 27.9668 22.8518 27.9215 23.4096 27.8224C24.0892 27.7019 24.7045 27.5035 25.2928 27.2072C25.8901 26.9067 26.4378 26.5133 26.9128 26.0438C27.388 25.574 27.7861 25.0322 28.0909 24.44C28.3913 23.8577 28.5925 23.2471 28.7151 22.5714C28.8064 22.0694 28.8527 21.5576 28.8754 20.9193L28.8814 20.7239C28.8856 20.5746 28.8886 20.4214 28.8907 20.2577L28.8955 18.9697L28.8948 8.31685L28.8907 7.74036C28.8886 7.57667 28.8856 7.42327 28.8814 7.27358C28.8616 6.54288 28.8156 5.97895 28.715 5.42594C28.5925 4.7507 28.3914 4.14053 28.0905 3.55733C27.7862 2.96545 27.388 2.42343 26.9125 1.95393C26.4386 1.48497 25.8909 1.09174 25.2924 0.790707C24.7045 0.494578 24.0892 0.29617 23.4093 0.175594C22.9025 0.0855735 22.386 0.0398634 21.7415 0.0175848L21.1868 0.00490045C21.1427 0.00436511 21.0948 0.00387129 21.0423 0.0034183L9.34803 0Z" fill="#1A1A1A" fill-opacity="0.01"/>
<path fill-rule="evenodd" clip-rule="evenodd" d="M8.26659 0.834908L9.3939 0.823337L21.1234 0.827866C21.3013 0.829678 21.4118 0.831902 21.5225 0.834908C22.104 0.850351 22.6905 0.884408 23.2656 0.986576C23.8494 1.0901 24.3924 1.25948 24.9224 1.52649C25.4433 1.78848 25.9205 2.13086 26.3339 2.54003C26.7473 2.94821 27.0937 3.41956 27.3587 3.93493C27.6292 4.45941 27.8001 4.99615 27.9049 5.5733C28.0082 6.14179 28.0426 6.72166 28.0582 7.29653C28.0656 7.56034 28.0688 7.82418 28.0702 8.08844L28.0718 8.55826L28.072 18.9697C28.072 19.283 28.072 19.5963 28.0702 19.9101C28.0688 20.1739 28.0656 20.4378 28.0582 20.7016C28.0426 21.276 28.0082 21.8563 27.9049 22.4243C27.8001 23.0015 27.6292 23.5387 27.3587 24.0632C27.0937 24.5781 26.7473 25.0494 26.3339 25.4581C25.9205 25.8668 25.4433 26.2096 24.9224 26.4716C24.3924 26.7386 23.8494 26.908 23.2656 27.0115C22.6905 27.1137 22.104 27.1477 21.5225 27.1632L19.7706 27.1768L8.6653 27.1702C8.48744 27.1684 8.37703 27.1662 8.26659 27.1632C7.68508 27.1477 7.0985 27.1137 6.52342 27.0115C5.93964 26.908 5.39672 26.7386 4.86665 26.4716C4.3453 26.2096 3.86851 25.8668 3.4551 25.4581C3.04173 25.0494 2.69536 24.5781 2.42987 24.0632C2.15981 23.5387 1.98891 23.0015 1.88374 22.4243C1.78037 21.8563 1.7464 21.276 1.73079 20.7016C1.72342 20.4378 1.72021 20.1739 1.71885 19.9101L1.71683 19.4397L1.71655 9.02842C1.71655 8.71508 1.71655 8.40132 1.71885 8.08844C1.72021 7.82418 1.72342 7.56034 1.73079 7.29653C1.7464 6.72166 1.78037 6.14179 1.88374 5.5733C1.98891 4.99615 2.15981 4.45941 2.42987 3.93493C2.69536 3.41956 3.04173 2.94821 3.4551 2.54003C3.86851 2.13086 4.3453 1.78848 4.86665 1.52649C5.39672 1.25948 5.93964 1.0901 6.52342 0.986576C7.0985 0.884408 7.68508 0.850351 8.26659 0.834908Z" fill="#1A1A1A" fill-opacity="0.01"/>
<path fill-rule="evenodd" clip-rule="evenodd" d="M8.26659 0.834908L9.3939 0.823337L21.1234 0.827866C21.3013 0.829678 21.4118 0.831902 21.5225 0.834908C22.104 0.850351 22.6905 0.884408 23.2656 0.986576C23.8494 1.0901 24.3924 1.25948 24.9224 1.52649C25.4433 1.78848 25.9205 2.13086 26.3339 2.54003C26.7473 2.94821 27.0937 3.41956 27.3587 3.93493C27.6292 4.45941 27.8001 4.99615 27.9049 5.5733C28.0082 6.14179 28.0426 6.72166 28.0582 7.29653C28.0656 7.56034 28.0688 7.82418 28.0702 8.08844L28.0718 8.55826L28.072 18.9697C28.072 19.283 28.072 19.5963 28.0702 19.9101C28.0688 20.1739 28.0656 20.4378 28.0582 20.7016C28.0426 21.276 28.0082 21.8563 27.9049 22.4243C27.8001 23.0015 27.6292 23.5387 27.3587 24.0632C27.0937 24.5781 26.7473 25.0494 26.3339 25.4581C25.9205 25.8668 25.4433 26.2096 24.9224 26.4716C24.3924 26.7386 23.8494 26.908 23.2656 27.0115C22.6905 27.1137 22.104 27.1477 21.5225 27.1632L19.7706 27.1768L8.6653 27.1702C8.48744 27.1684 8.37703 27.1662 8.26659 27.1632C7.68508 27.1477 7.0985 27.1137 6.52342 27.0115C5.93964 26.908 5.39672 26.7386 4.86665 26.4716C4.3453 26.2096 3.86851 25.8668 3.4551 25.4581C3.04173 25.0494 2.69536 24.5781 2.42987 24.0632C2.15981 23.5387 1.98891 23.0015 1.88374 22.4243C1.78037 21.8563 1.7464 21.276 1.73079 20.7016C1.72342 20.4378 1.72021 20.1739 1.71885 19.9101L1.71683 19.4397L1.71655 9.02842C1.71655 8.71508 1.71655 8.40132 1.71885 8.08844C1.72021 7.82418 1.72342 7.56034 1.73079 7.29653C1.7464 6.72166 1.78037 6.14179 1.88374 5.5733C1.98891 4.99615 2.15981 4.45941 2.42987 3.93493C2.69536 3.41956 3.04173 2.94821 3.4551 2.54003C3.86851 2.13086 4.3453 1.78848 4.86665 1.52649C5.39672 1.25948 5.93964 1.0901 6.52342 0.986576C7.0985 0.884408 7.68508 0.850351 8.26659 0.834908Z" fill="white"/>
<path d="M28.0723 0.821173H1.71678V27.1767H28.0723V0.821173Z" fill="#19AA1E"/>
<path fill-rule="evenodd" clip-rule="evenodd" d="M1.71678 0.821173H28.0723V9.46907L1.71678 5.35102V0.821173Z" fill="#FFB919"/>
<path fill-rule="evenodd" clip-rule="evenodd" d="M1.71702 24.2941L28.0725 20.176L28.0723 27.1767H1.71678L1.71702 24.2941Z" fill="#82D714"/>
<path fill-rule="evenodd" clip-rule="evenodd" d="M1.71702 4.83015L10.9166 6.26755C12.0618 5.54265 13.4242 5.14522 14.8948 5.14522C16.9316 5.14522 18.7609 5.90767 20.0929 7.24653C20.261 7.4155 20.4196 7.59216 20.5682 7.77562L28.0725 8.94815V9.99014L21.3302 8.9367C21.8311 9.89794 22.1014 10.9689 22.1014 12.0619C22.1014 13.4739 21.7855 14.8818 21.1327 16.2952L21.1128 16.338L20.8355 16.9322H20.1798C18.8259 16.9322 17.9278 17.3372 17.3407 18.0549C16.8796 18.6185 16.613 19.3782 16.5233 20.2071L16.5206 20.233L16.5075 20.3654L16.5019 20.423L16.4913 20.5358C16.457 20.9058 16.434 21.2197 16.4223 21.4755L28.0725 19.6551V20.6971L1.71702 24.8151V23.7731L13.3804 21.9507L13.3752 21.7168L13.3737 21.6508L13.3727 21.617L13.3709 21.5648C13.3604 21.2811 13.3344 20.9175 13.2928 20.4768L13.2848 20.3933L13.2705 20.2486C13.1868 19.4153 12.9242 18.6459 12.4644 18.074C11.8834 17.3514 10.9935 16.9405 9.65052 16.9323L9.60971 16.9322H8.95403L8.67677 16.338C8.01042 14.9102 7.68819 13.4882 7.68819 12.0619C7.68819 10.2683 8.41585 8.53387 9.6966 7.24653C9.73358 7.20939 9.77093 7.17265 9.80865 7.13642L1.71702 5.87209V4.83015Z" fill="white"/>
<path fill-rule="evenodd" clip-rule="evenodd" d="M14.8948 6.17471C18.5743 6.17471 21.0719 9.00681 21.0719 12.0619C21.0719 13.2884 20.8043 14.5647 20.1799 15.9026C16.5593 15.9026 15.6656 18.4955 15.4966 20.1269L15.4858 20.2357C15.4285 20.8179 15.3954 21.2851 15.3864 21.6373L14.4057 21.7905L14.4055 21.7588C14.4017 21.3896 14.3669 20.8717 14.3008 20.2051L14.2979 20.1761C14.1418 18.5482 13.2669 15.9026 9.60974 15.9026C8.98532 14.5647 8.71773 13.2884 8.71773 12.0619C8.71773 9.00681 11.2153 6.17471 14.8948 6.17471Z" fill="#0073FA"/>
<path fill-rule="evenodd" clip-rule="evenodd" d="M40.2613 7.20426C37.0492 7.20426 34.6402 9.16033 34.6608 12.5577H37.6464C37.6052 11.1988 38.47 9.88099 40.2613 9.88099C41.6203 9.88099 42.4851 10.787 42.4851 11.94C42.4851 13.1342 41.5379 13.7931 40.0142 14.5344C38.017 15.5021 36.8228 15.9551 34.6608 16.6758V20.5879H45.7795V17.9112H38.6965C39.7284 17.481 40.7332 17.0085 41.6409 16.5728C44.0499 15.4198 45.4706 14.1226 45.4706 11.7959C45.4706 8.99561 43.3704 7.20426 40.2613 7.20426ZM50.3094 10.0869H56.0746V7.41016H47.4267V20.5879H50.3094V10.0869ZM60.6045 7.41016H57.7218V20.5879H60.5839L65.9579 12.1665V20.5879H68.8406V7.41016H65.9579L60.6045 15.8316V7.41016ZM83.3155 15.6463H80.3299C79.8769 17.1082 78.4974 18.1171 76.8708 18.1171C74.5029 18.1171 72.9586 16.0786 72.9586 13.999C72.9586 11.9194 74.4617 9.88099 76.9531 9.88099C78.6003 9.88099 79.8769 10.8899 80.3299 12.3518H83.3155C82.8831 9.40741 80.5564 7.20426 76.8708 7.20426C72.7939 7.20426 70.076 10.0663 70.076 13.999C70.076 17.9318 72.7939 20.7938 76.8708 20.7938C80.5564 20.7938 82.8831 18.6318 83.3155 15.6463Z" fill="#1A1A1A"/>
</svg>
