<svg width="138" height="28" viewBox="0 0 138 28" fill="none" xmlns="http://www.w3.org/2000/svg">
<path fill-rule="evenodd" clip-rule="evenodd" d="M27.4053 13.7027C27.4053 6.13452 21.2698 0 13.7027 0C6.13452 0 0 6.13452 0 13.7027C0 21.2698 6.13452 27.4043 13.7027 27.4043C21.2698 27.4043 27.4053 21.2698 27.4053 13.7027Z" fill="#FC3F1D"/>
<path fill-rule="evenodd" clip-rule="evenodd" d="M15.5292 7.76472H14.2733C11.9323 7.76472 10.7339 8.96303 10.7339 10.6766C10.7339 12.6175 11.5897 13.5309 13.3033 14.7302L14.73 15.7002L10.6198 21.8665H7.53613L11.2472 16.3852C9.13454 14.8444 7.93623 13.3602 7.93623 10.905C7.93623 7.76472 10.1055 5.65204 14.2733 5.65204H18.3845V21.9231H15.5292V7.76472Z" fill="white"/>
<path fill-rule="evenodd" clip-rule="evenodd" d="M43.303 0.0257874C37.2271 0.0257874 32.3018 4.95108 32.3018 11.027C32.3018 14.064 33.5328 16.8141 35.5224 18.8046C37.513 20.7962 42.203 23.6783 42.478 26.7044C42.5197 27.1581 42.8483 27.5294 43.303 27.5294C43.7587 27.5294 44.0873 27.1581 44.129 26.7044C44.404 23.6783 49.093 20.7962 51.0836 18.8046C53.0742 16.8141 54.3042 14.064 54.3042 11.027C54.3042 4.95108 49.3789 0.0257874 43.303 0.0257874Z" fill="#FF4433"/>
<path fill-rule="evenodd" clip-rule="evenodd" d="M43.3032 14.8781C45.4298 14.8781 47.1533 13.1536 47.1533 11.0281C47.1533 8.90147 45.4298 7.17697 43.3032 7.17697C41.1766 7.17697 39.4531 8.90147 39.4531 11.0281C39.4531 13.1536 41.1766 14.8781 43.3032 14.8781Z" fill="white"/>
<path fill-rule="evenodd" clip-rule="evenodd" d="M126.921 20.9183H125.283V16.139H127.005C128.52 16.139 129.409 16.822 129.409 18.5425C129.409 20.2641 128.427 20.9183 126.921 20.9183ZM134.358 8.78627V23.7061H137.893V8.78627H134.358ZM121.757 8.78627V23.7061H127.127C130.597 23.7061 133.057 21.929 133.057 18.4214C133.057 15.1005 130.859 13.3512 127.183 13.3512H125.283V8.78627H121.757ZM119.68 11.5741V8.78627H107.847V11.5741H112.001V23.7061H115.527V11.5741H119.68ZM100.56 21.2092C98.6882 21.2092 97.7351 19.7031 97.7351 16.2601C97.7351 12.7902 98.7448 11.2842 100.737 11.2842C102.664 11.2842 103.61 12.7902 103.61 16.2323C103.61 19.7031 102.599 21.2092 100.56 21.2092ZM97.473 8.78627H94.2077V28H97.7351V21.9568C98.6326 23.2852 99.9332 23.997 101.448 23.997C104.881 23.997 107.257 21.2459 107.257 16.2323C107.257 11.2464 104.947 8.49638 101.626 8.49638C99.961 8.49638 98.5949 9.26381 97.6508 10.7133L97.473 8.78627ZM87.8379 20.1429C87.3882 20.7972 86.5562 21.3303 85.3122 21.3303C83.8339 21.3303 83.0854 20.4984 83.0854 19.2256C83.0854 17.5329 84.3015 16.9153 87.3326 16.9153H87.8379V20.1429ZM91.3643 13.5289C91.3643 9.91807 89.5217 8.55197 85.7888 8.55197C83.4507 8.55197 81.6081 9.29161 80.5408 9.91807V12.8558C81.486 12.135 83.5629 11.3686 85.3777 11.3686C87.0615 11.3686 87.8379 11.9573 87.8379 13.5666V14.3896H87.267C81.8692 14.3896 79.4745 16.1767 79.4745 19.1978C79.4745 22.2189 81.3082 23.9126 84.0404 23.9126C86.1164 23.9126 87.0049 23.2296 87.688 22.5187H87.8379C87.8657 22.9019 87.9868 23.4073 88.1 23.7061H91.542C91.4199 22.4909 91.3643 21.2747 91.3643 20.0585V13.5289ZM75.1439 23.7061H79.3256L72.0007 12.8836L78.6426 3.09851H74.994L68.6143 12.5837V3.09851H65.0312V23.7061H68.6143V14.0342L75.1439 23.7061Z" fill="black"/>
</svg>
